%TF.GenerationSoftware,KiCad,Pcbnew,(6.0.7)*%
%TF.CreationDate,2024-10-06T09:26:11-05:00*%
%TF.ProjectId,RGB7Segment,52474237-5365-4676-9d65-6e742e6b6963,rev?*%
%TF.SameCoordinates,Original*%
%TF.FileFunction,Copper,L1,Top*%
%TF.FilePolarity,Positive*%
%FSLAX46Y46*%
G04 Gerber Fmt 4.6, Leading zero omitted, Abs format (unit mm)*
G04 Created by KiCad (PCBNEW (6.0.7)) date 2024-10-06 09:26:11*
%MOMM*%
%LPD*%
G01*
G04 APERTURE LIST*
G04 Aperture macros list*
%AMRoundRect*
0 Rectangle with rounded corners*
0 $1 Rounding radius*
0 $2 $3 $4 $5 $6 $7 $8 $9 X,Y pos of 4 corners*
0 Add a 4 corners polygon primitive as box body*
4,1,4,$2,$3,$4,$5,$6,$7,$8,$9,$2,$3,0*
0 Add four circle primitives for the rounded corners*
1,1,$1+$1,$2,$3*
1,1,$1+$1,$4,$5*
1,1,$1+$1,$6,$7*
1,1,$1+$1,$8,$9*
0 Add four rect primitives between the rounded corners*
20,1,$1+$1,$2,$3,$4,$5,0*
20,1,$1+$1,$4,$5,$6,$7,0*
20,1,$1+$1,$6,$7,$8,$9,0*
20,1,$1+$1,$8,$9,$2,$3,0*%
G04 Aperture macros list end*
%TA.AperFunction,SMDPad,CuDef*%
%ADD10RoundRect,0.135000X-0.185000X0.135000X-0.185000X-0.135000X0.185000X-0.135000X0.185000X0.135000X0*%
%TD*%
%TA.AperFunction,SMDPad,CuDef*%
%ADD11R,1.803400X0.812800*%
%TD*%
%TA.AperFunction,SMDPad,CuDef*%
%ADD12RoundRect,0.135000X-0.135000X-0.185000X0.135000X-0.185000X0.135000X0.185000X-0.135000X0.185000X0*%
%TD*%
%TA.AperFunction,ComponentPad*%
%ADD13R,1.700000X1.700000*%
%TD*%
%TA.AperFunction,ComponentPad*%
%ADD14O,1.700000X1.700000*%
%TD*%
%TA.AperFunction,SMDPad,CuDef*%
%ADD15R,0.812800X1.803400*%
%TD*%
%TA.AperFunction,ViaPad*%
%ADD16C,0.800000*%
%TD*%
%TA.AperFunction,Conductor*%
%ADD17C,0.250000*%
%TD*%
G04 APERTURE END LIST*
D10*
%TO.P,R1,1*%
%TO.N,/DIN*%
X185250000Y-100740000D03*
%TO.P,R1,2*%
%TO.N,Net-(D2-Pad4)*%
X185250000Y-101760000D03*
%TD*%
D11*
%TO.P,B1,1,VDD*%
%TO.N,+3V3*%
X201998100Y-91500700D03*
%TO.P,B1,2,DOUT*%
%TO.N,Net-(B1-Pad2)*%
X201998100Y-92999300D03*
%TO.P,B1,3,VSS*%
%TO.N,GND*%
X207001900Y-92999300D03*
%TO.P,B1,4,DIN*%
%TO.N,Net-(A1-Pad2)*%
X207001900Y-91500700D03*
%TD*%
D12*
%TO.P,R2,1*%
%TO.N,/DIN*%
X190490000Y-86750000D03*
%TO.P,R2,2*%
%TO.N,Net-(R2-Pad2)*%
X191510000Y-86750000D03*
%TD*%
D11*
%TO.P,D1,1,VDD*%
%TO.N,+3V3*%
X196498100Y-104531750D03*
%TO.P,D1,2,DOUT*%
%TO.N,Net-(D1-Pad2)*%
X196498100Y-106030350D03*
%TO.P,D1,3,VSS*%
%TO.N,GND*%
X201501900Y-106030350D03*
%TO.P,D1,4,DIN*%
%TO.N,/D1*%
X201501900Y-104531750D03*
%TD*%
D13*
%TO.P,J1,1,Pin_1*%
%TO.N,+3V3*%
X184500000Y-87700000D03*
D14*
%TO.P,J1,2,Pin_2*%
%TO.N,/DIN*%
X184500000Y-90240000D03*
%TO.P,J1,3,Pin_3*%
%TO.N,unconnected-(J1-Pad3)*%
X184500000Y-92780000D03*
%TO.P,J1,4,Pin_4*%
%TO.N,GND*%
X184500000Y-95320000D03*
%TD*%
D11*
%TO.P,A1,1,VDD*%
%TO.N,+3V3*%
X196498100Y-87031750D03*
%TO.P,A1,2,DOUT*%
%TO.N,Net-(A1-Pad2)*%
X196498100Y-88530350D03*
%TO.P,A1,3,VSS*%
%TO.N,GND*%
X201501900Y-88530350D03*
%TO.P,A1,4,DIN*%
%TO.N,Net-(R2-Pad2)*%
X201501900Y-87031750D03*
%TD*%
D13*
%TO.P,J2,1,Pin_1*%
%TO.N,+3V3*%
X213500000Y-87700000D03*
D14*
%TO.P,J2,2,Pin_2*%
%TO.N,unconnected-(J2-Pad2)*%
X213500000Y-90240000D03*
%TO.P,J2,3,Pin_3*%
%TO.N,/DOUT*%
X213500000Y-92780000D03*
%TO.P,J2,4,Pin_4*%
%TO.N,GND*%
X213500000Y-95320000D03*
%TD*%
D11*
%TO.P,C1,1,VDD*%
%TO.N,+3V3*%
X202248100Y-100250700D03*
%TO.P,C1,2,DOUT*%
%TO.N,/D1*%
X202248100Y-101749300D03*
%TO.P,C1,3,VSS*%
%TO.N,GND*%
X207251900Y-101749300D03*
%TO.P,C1,4,DIN*%
%TO.N,Net-(B1-Pad2)*%
X207251900Y-100250700D03*
%TD*%
%TO.P,E1,1,VDD*%
%TO.N,+3V3*%
X191248100Y-100250700D03*
%TO.P,E1,2,DOUT*%
%TO.N,Net-(E1-Pad2)*%
X191248100Y-101749300D03*
%TO.P,E1,3,VSS*%
%TO.N,GND*%
X196251900Y-101749300D03*
%TO.P,E1,4,DIN*%
%TO.N,Net-(D1-Pad2)*%
X196251900Y-100250700D03*
%TD*%
%TO.P,F1,1,VDD*%
%TO.N,+3V3*%
X190998100Y-91500700D03*
%TO.P,F1,2,DOUT*%
%TO.N,Net-(F1-Pad2)*%
X190998100Y-92999300D03*
%TO.P,F1,3,VSS*%
%TO.N,GND*%
X196001900Y-92999300D03*
%TO.P,F1,4,DIN*%
%TO.N,Net-(E1-Pad2)*%
X196001900Y-91500700D03*
%TD*%
D15*
%TO.P,G1,1,VDD*%
%TO.N,+3V3*%
X198500700Y-99251900D03*
%TO.P,G1,2,DOUT*%
%TO.N,/D2*%
X199999300Y-99251900D03*
%TO.P,G1,3,VSS*%
%TO.N,GND*%
X199999300Y-94248100D03*
%TO.P,G1,4,DIN*%
%TO.N,Net-(F1-Pad2)*%
X198500700Y-94248100D03*
%TD*%
D16*
%TO.N,GND*%
X203250000Y-88500000D03*
X196000000Y-94250000D03*
X209000000Y-101750000D03*
X200000000Y-92500000D03*
X203250000Y-106250000D03*
X197750000Y-101750000D03*
X208750000Y-93000000D03*
%TD*%
D17*
%TO.N,+3V3*%
X204500000Y-106250000D02*
X207500000Y-106250000D01*
X193136396Y-107500000D02*
X203250000Y-107500000D01*
X204250000Y-106250000D02*
X204500000Y-106250000D01*
X203250000Y-107500000D02*
X204500000Y-106250000D01*
X192193198Y-106556802D02*
X193136396Y-107500000D01*
X202750700Y-100250700D02*
X203750000Y-101250000D01*
X190998100Y-91500700D02*
X190502800Y-91500700D01*
X207500000Y-106250000D02*
X209725000Y-104025000D01*
X196498100Y-104531750D02*
X198500700Y-102529150D01*
X191743400Y-100250700D02*
X193025000Y-101532300D01*
X187050000Y-87700000D02*
X187050000Y-105050000D01*
X194250000Y-88250000D02*
X193000000Y-88250000D01*
X203750000Y-101250000D02*
X203750000Y-104500000D01*
X193025000Y-101532300D02*
X193025000Y-105725000D01*
X198500700Y-102529150D02*
X198500700Y-101749300D01*
X204250000Y-106250000D02*
X204250000Y-106275305D01*
X201998100Y-91500700D02*
X199000700Y-91500700D01*
X187050000Y-105050000D02*
X188500000Y-106500000D01*
X192136396Y-106500000D02*
X192193198Y-106556802D01*
X199000700Y-91500700D02*
X197500000Y-90000000D01*
X194218250Y-87031750D02*
X193000000Y-88250000D01*
X198500700Y-101749300D02*
X198500700Y-99251900D01*
X209725000Y-91475000D02*
X213500000Y-87700000D01*
X198500700Y-101749300D02*
X200254200Y-101749300D01*
X192450000Y-87700000D02*
X187050000Y-87700000D01*
X196000000Y-90000000D02*
X194250000Y-88250000D01*
X202248100Y-100250700D02*
X202750700Y-100250700D01*
X193000000Y-88250000D02*
X192450000Y-87700000D01*
X201752800Y-100250700D02*
X202248100Y-100250700D01*
X197500000Y-90000000D02*
X196000000Y-90000000D01*
X188500000Y-106500000D02*
X192136396Y-106500000D01*
X193025000Y-105725000D02*
X192193198Y-106556802D01*
X209725000Y-104025000D02*
X209725000Y-91475000D01*
X189750000Y-92253500D02*
X189750000Y-98752600D01*
X200254200Y-101749300D02*
X201752800Y-100250700D01*
X204250000Y-105000000D02*
X204250000Y-106250000D01*
X187050000Y-87700000D02*
X184500000Y-87700000D01*
X196498100Y-87031750D02*
X194218250Y-87031750D01*
X191248100Y-100250700D02*
X191743400Y-100250700D01*
X189750000Y-98752600D02*
X191248100Y-100250700D01*
X203750000Y-104500000D02*
X204250000Y-105000000D01*
X190502800Y-91500700D02*
X189750000Y-92253500D01*
%TO.N,/DIN*%
X183500000Y-85750000D02*
X189490000Y-85750000D01*
X184500000Y-90240000D02*
X183000000Y-88740000D01*
X183000000Y-91740000D02*
X183000000Y-98490000D01*
X183000000Y-86250000D02*
X183500000Y-85750000D01*
X184500000Y-90240000D02*
X183000000Y-91740000D01*
X189490000Y-85750000D02*
X190490000Y-86750000D01*
X183000000Y-98490000D02*
X185250000Y-100740000D01*
X183000000Y-88740000D02*
X183000000Y-86250000D01*
%TO.N,GND*%
X199999300Y-92500700D02*
X200000000Y-92500000D01*
X203219650Y-88530350D02*
X203250000Y-88500000D01*
X196251900Y-101749300D02*
X197749300Y-101749300D01*
X196001900Y-92999300D02*
X196001900Y-94248100D01*
X201501900Y-106030350D02*
X203030350Y-106030350D01*
X207251900Y-101749300D02*
X208999300Y-101749300D01*
X207001900Y-92999300D02*
X208749300Y-92999300D01*
X196001900Y-94248100D02*
X196000000Y-94250000D01*
X208749300Y-92999300D02*
X208750000Y-93000000D01*
X199999300Y-94248100D02*
X199999300Y-92500700D01*
X197749300Y-101749300D02*
X197750000Y-101750000D01*
X203030350Y-106030350D02*
X203250000Y-106250000D01*
X208999300Y-101749300D02*
X209000000Y-101750000D01*
X201501900Y-88530350D02*
X203219650Y-88530350D01*
%TO.N,Net-(D1-Pad2)*%
X196498100Y-106030350D02*
X196002800Y-106030350D01*
X194750000Y-100750000D02*
X195249300Y-100250700D01*
X194750000Y-104777550D02*
X194750000Y-100750000D01*
X196002800Y-106030350D02*
X194750000Y-104777550D01*
X195249300Y-100250700D02*
X196251900Y-100250700D01*
%TO.N,/D1*%
X202248100Y-101749300D02*
X202248100Y-103785550D01*
X202248100Y-103785550D02*
X201501900Y-104531750D01*
%TO.N,Net-(A1-Pad2)*%
X196498100Y-88530350D02*
X197467750Y-89500000D01*
X207001900Y-90001900D02*
X207001900Y-91500700D01*
X206500000Y-89500000D02*
X207001900Y-90001900D01*
X197467750Y-89500000D02*
X206500000Y-89500000D01*
%TO.N,Net-(B1-Pad2)*%
X201998100Y-92999300D02*
X202072524Y-92999300D01*
X203823224Y-94750000D02*
X206500000Y-94750000D01*
X202072524Y-92999300D02*
X203823224Y-94750000D01*
X207251900Y-95501900D02*
X207251900Y-100250700D01*
X206500000Y-94750000D02*
X207251900Y-95501900D01*
%TO.N,Net-(E1-Pad2)*%
X188500000Y-99496500D02*
X188500000Y-92040700D01*
X191248100Y-101749300D02*
X190752800Y-101749300D01*
X189250000Y-90500000D02*
X190250000Y-89500000D01*
X188500000Y-92040700D02*
X189250000Y-91290700D01*
X193000000Y-89500000D02*
X195000000Y-89750000D01*
X195000000Y-89750000D02*
X196001900Y-91500700D01*
X190752800Y-101749300D02*
X188500000Y-99496500D01*
X189250000Y-91290700D02*
X189250000Y-90500000D01*
X190250000Y-89500000D02*
X193000000Y-89500000D01*
%TO.N,Net-(F1-Pad2)*%
X197748800Y-95000000D02*
X198500700Y-94248100D01*
X190998100Y-92999300D02*
X190999300Y-92999300D01*
X190999300Y-92999300D02*
X191250000Y-93250000D01*
X191500000Y-95000000D02*
X197748800Y-95000000D01*
X191250000Y-94750000D02*
X191500000Y-95000000D01*
X191250000Y-93250000D02*
X191250000Y-94750000D01*
%TO.N,Net-(R2-Pad2)*%
X191510000Y-86750000D02*
X193010000Y-85250000D01*
X200750000Y-85250000D02*
X201501900Y-86001900D01*
X193010000Y-85250000D02*
X200750000Y-85250000D01*
X201501900Y-86001900D02*
X201501900Y-87031750D01*
%TD*%
M02*
