%TF.GenerationSoftware,KiCad,Pcbnew,(6.0.7)*%
%TF.CreationDate,2024-10-06T09:26:11-05:00*%
%TF.ProjectId,RGB7Segment,52474237-5365-4676-9d65-6e742e6b6963,rev?*%
%TF.SameCoordinates,Original*%
%TF.FileFunction,Legend,Top*%
%TF.FilePolarity,Positive*%
%FSLAX46Y46*%
G04 Gerber Fmt 4.6, Leading zero omitted, Abs format (unit mm)*
G04 Created by KiCad (PCBNEW (6.0.7)) date 2024-10-06 09:26:11*
%MOMM*%
%LPD*%
G01*
G04 APERTURE LIST*
%ADD10C,0.150000*%
%ADD11C,0.120000*%
%ADD12C,0.152400*%
G04 APERTURE END LIST*
D10*
%TO.C,R1*%
X186872380Y-101416666D02*
X186396190Y-101750000D01*
X186872380Y-101988095D02*
X185872380Y-101988095D01*
X185872380Y-101607142D01*
X185920000Y-101511904D01*
X185967619Y-101464285D01*
X186062857Y-101416666D01*
X186205714Y-101416666D01*
X186300952Y-101464285D01*
X186348571Y-101511904D01*
X186396190Y-101607142D01*
X186396190Y-101988095D01*
X186872380Y-100464285D02*
X186872380Y-101035714D01*
X186872380Y-100750000D02*
X185872380Y-100750000D01*
X186015238Y-100845238D01*
X186110476Y-100940476D01*
X186158095Y-101035714D01*
%TO.C,B1*%
X204095238Y-89678571D02*
X204238095Y-89726190D01*
X204285714Y-89773809D01*
X204333333Y-89869047D01*
X204333333Y-90011904D01*
X204285714Y-90107142D01*
X204238095Y-90154761D01*
X204142857Y-90202380D01*
X203761904Y-90202380D01*
X203761904Y-89202380D01*
X204095238Y-89202380D01*
X204190476Y-89250000D01*
X204238095Y-89297619D01*
X204285714Y-89392857D01*
X204285714Y-89488095D01*
X204238095Y-89583333D01*
X204190476Y-89630952D01*
X204095238Y-89678571D01*
X203761904Y-89678571D01*
X205285714Y-90202380D02*
X204714285Y-90202380D01*
X205000000Y-90202380D02*
X205000000Y-89202380D01*
X204904761Y-89345238D01*
X204809523Y-89440476D01*
X204714285Y-89488095D01*
%TO.C,R2*%
X190833333Y-86032380D02*
X190500000Y-85556190D01*
X190261904Y-86032380D02*
X190261904Y-85032380D01*
X190642857Y-85032380D01*
X190738095Y-85080000D01*
X190785714Y-85127619D01*
X190833333Y-85222857D01*
X190833333Y-85365714D01*
X190785714Y-85460952D01*
X190738095Y-85508571D01*
X190642857Y-85556190D01*
X190261904Y-85556190D01*
X191214285Y-85127619D02*
X191261904Y-85080000D01*
X191357142Y-85032380D01*
X191595238Y-85032380D01*
X191690476Y-85080000D01*
X191738095Y-85127619D01*
X191785714Y-85222857D01*
X191785714Y-85318095D01*
X191738095Y-85460952D01*
X191166666Y-86032380D01*
X191785714Y-86032380D01*
%TO.C,D1*%
X198261904Y-103202380D02*
X198261904Y-102202380D01*
X198500000Y-102202380D01*
X198642857Y-102250000D01*
X198738095Y-102345238D01*
X198785714Y-102440476D01*
X198833333Y-102630952D01*
X198833333Y-102773809D01*
X198785714Y-102964285D01*
X198738095Y-103059523D01*
X198642857Y-103154761D01*
X198500000Y-103202380D01*
X198261904Y-103202380D01*
X199785714Y-103202380D02*
X199214285Y-103202380D01*
X199500000Y-103202380D02*
X199500000Y-102202380D01*
X199404761Y-102345238D01*
X199309523Y-102440476D01*
X199214285Y-102488095D01*
%TO.C,J1*%
X186916666Y-86202380D02*
X186916666Y-86916666D01*
X186869047Y-87059523D01*
X186773809Y-87154761D01*
X186630952Y-87202380D01*
X186535714Y-87202380D01*
X187916666Y-87202380D02*
X187345238Y-87202380D01*
X187630952Y-87202380D02*
X187630952Y-86202380D01*
X187535714Y-86345238D01*
X187440476Y-86440476D01*
X187345238Y-86488095D01*
%TO.C,A1*%
X198285714Y-85666666D02*
X198761904Y-85666666D01*
X198190476Y-85952380D02*
X198523809Y-84952380D01*
X198857142Y-85952380D01*
X199714285Y-85952380D02*
X199142857Y-85952380D01*
X199428571Y-85952380D02*
X199428571Y-84952380D01*
X199333333Y-85095238D01*
X199238095Y-85190476D01*
X199142857Y-85238095D01*
%TO.C,J2*%
X213166666Y-84822380D02*
X213166666Y-85536666D01*
X213119047Y-85679523D01*
X213023809Y-85774761D01*
X212880952Y-85822380D01*
X212785714Y-85822380D01*
X213595238Y-84917619D02*
X213642857Y-84870000D01*
X213738095Y-84822380D01*
X213976190Y-84822380D01*
X214071428Y-84870000D01*
X214119047Y-84917619D01*
X214166666Y-85012857D01*
X214166666Y-85108095D01*
X214119047Y-85250952D01*
X213547619Y-85822380D01*
X214166666Y-85822380D01*
%TO.C,C1*%
X206333333Y-98857142D02*
X206285714Y-98904761D01*
X206142857Y-98952380D01*
X206047619Y-98952380D01*
X205904761Y-98904761D01*
X205809523Y-98809523D01*
X205761904Y-98714285D01*
X205714285Y-98523809D01*
X205714285Y-98380952D01*
X205761904Y-98190476D01*
X205809523Y-98095238D01*
X205904761Y-98000000D01*
X206047619Y-97952380D01*
X206142857Y-97952380D01*
X206285714Y-98000000D01*
X206333333Y-98047619D01*
X207285714Y-98952380D02*
X206714285Y-98952380D01*
X207000000Y-98952380D02*
X207000000Y-97952380D01*
X206904761Y-98095238D01*
X206809523Y-98190476D01*
X206714285Y-98238095D01*
%TO.C,E1*%
X191309523Y-98428571D02*
X191642857Y-98428571D01*
X191785714Y-98952380D02*
X191309523Y-98952380D01*
X191309523Y-97952380D01*
X191785714Y-97952380D01*
X192738095Y-98952380D02*
X192166666Y-98952380D01*
X192452380Y-98952380D02*
X192452380Y-97952380D01*
X192357142Y-98095238D01*
X192261904Y-98190476D01*
X192166666Y-98238095D01*
%TO.C,F1*%
X193166666Y-89897521D02*
X192833333Y-89897521D01*
X192833333Y-90421330D02*
X192833333Y-89421330D01*
X193309523Y-89421330D01*
X194214285Y-90421330D02*
X193642857Y-90421330D01*
X193928571Y-90421330D02*
X193928571Y-89421330D01*
X193833333Y-89564188D01*
X193738095Y-89659426D01*
X193642857Y-89707045D01*
%TO.C,G1*%
X199035714Y-91750000D02*
X198940476Y-91702380D01*
X198797619Y-91702380D01*
X198654761Y-91750000D01*
X198559523Y-91845238D01*
X198511904Y-91940476D01*
X198464285Y-92130952D01*
X198464285Y-92273809D01*
X198511904Y-92464285D01*
X198559523Y-92559523D01*
X198654761Y-92654761D01*
X198797619Y-92702380D01*
X198892857Y-92702380D01*
X199035714Y-92654761D01*
X199083333Y-92607142D01*
X199083333Y-92273809D01*
X198892857Y-92273809D01*
X200035714Y-92702380D02*
X199464285Y-92702380D01*
X199750000Y-92702380D02*
X199750000Y-91702380D01*
X199654761Y-91845238D01*
X199559523Y-91940476D01*
X199464285Y-91988095D01*
D11*
%TO.C,R1*%
X184870000Y-101096359D02*
X184870000Y-101403641D01*
X185630000Y-101096359D02*
X185630000Y-101403641D01*
D12*
%TO.C,B1*%
X202772800Y-90726000D02*
X206227200Y-90726000D01*
X206227200Y-93774000D02*
X202772800Y-93774000D01*
D11*
%TO.C,R2*%
X190846359Y-86370000D02*
X191153641Y-86370000D01*
X190846359Y-87130000D02*
X191153641Y-87130000D01*
D12*
%TO.C,D1*%
X200727200Y-106805050D02*
X197272800Y-106805050D01*
X197272800Y-103757050D02*
X200727200Y-103757050D01*
D11*
%TO.C,J1*%
X183170000Y-88970000D02*
X185830000Y-88970000D01*
X185830000Y-88970000D02*
X185830000Y-96650000D01*
X183170000Y-87700000D02*
X183170000Y-86370000D01*
X183170000Y-88970000D02*
X183170000Y-96650000D01*
X183170000Y-86370000D02*
X184500000Y-86370000D01*
X183170000Y-96650000D02*
X185830000Y-96650000D01*
D12*
%TO.C,A1*%
X200727200Y-89305050D02*
X197272800Y-89305050D01*
X197272800Y-86257050D02*
X200727200Y-86257050D01*
D11*
%TO.C,J2*%
X214830000Y-88970000D02*
X214830000Y-96650000D01*
X212170000Y-88970000D02*
X212170000Y-96650000D01*
X212170000Y-86370000D02*
X213500000Y-86370000D01*
X212170000Y-87700000D02*
X212170000Y-86370000D01*
X212170000Y-96650000D02*
X214830000Y-96650000D01*
X212170000Y-88970000D02*
X214830000Y-88970000D01*
D12*
%TO.C,C1*%
X206477200Y-102524000D02*
X203022800Y-102524000D01*
X203022800Y-99476000D02*
X206477200Y-99476000D01*
%TO.C,E1*%
X192022800Y-99476000D02*
X195477200Y-99476000D01*
X195477200Y-102524000D02*
X192022800Y-102524000D01*
%TO.C,F1*%
X195227200Y-93774000D02*
X191772800Y-93774000D01*
X191772800Y-90726000D02*
X195227200Y-90726000D01*
%TO.C,G1*%
X197726000Y-98477200D02*
X197726000Y-95022800D01*
X200774000Y-95022800D02*
X200774000Y-98477200D01*
%TD*%
M02*
