%TF.GenerationSoftware,KiCad,Pcbnew,(6.0.7)*%
%TF.CreationDate,2024-10-06T09:26:11-05:00*%
%TF.ProjectId,RGB7Segment,52474237-5365-4676-9d65-6e742e6b6963,rev?*%
%TF.SameCoordinates,Original*%
%TF.FileFunction,Soldermask,Bot*%
%TF.FilePolarity,Negative*%
%FSLAX46Y46*%
G04 Gerber Fmt 4.6, Leading zero omitted, Abs format (unit mm)*
G04 Created by KiCad (PCBNEW (6.0.7)) date 2024-10-06 09:26:11*
%MOMM*%
%LPD*%
G01*
G04 APERTURE LIST*
%ADD10C,0.120000*%
%ADD11R,1.700000X1.700000*%
%ADD12O,1.700000X1.700000*%
G04 APERTURE END LIST*
%TO.C,C1*%
G36*
X205250000Y-98500000D02*
G01*
X205250000Y-103500000D01*
X204750000Y-104250000D01*
X204250000Y-103500000D01*
X204250000Y-98500000D01*
X204750000Y-97750000D01*
X205250000Y-98500000D01*
G37*
D10*
X205250000Y-98500000D02*
X205250000Y-103500000D01*
X204750000Y-104250000D01*
X204250000Y-103500000D01*
X204250000Y-98500000D01*
X204750000Y-97750000D01*
X205250000Y-98500000D01*
%TO.C,E1*%
X193200000Y-97650000D02*
X194300000Y-97650000D01*
X194300000Y-97650000D02*
X194300000Y-104350000D01*
X194300000Y-104350000D02*
X193200000Y-104350000D01*
X193200000Y-104350000D02*
X193200000Y-97650000D01*
G36*
X193200000Y-97650000D02*
G01*
X194300000Y-97650000D01*
X194300000Y-104350000D01*
X193200000Y-104350000D01*
X193200000Y-97650000D01*
G37*
%TO.C,F1*%
X191950000Y-90900000D02*
X195050000Y-90900000D01*
X195050000Y-90900000D02*
X195050000Y-93600000D01*
X195050000Y-93600000D02*
X191950000Y-93600000D01*
X191950000Y-93600000D02*
X191950000Y-90900000D01*
G36*
X191950000Y-90900000D02*
G01*
X195050000Y-90900000D01*
X195050000Y-93600000D01*
X191950000Y-93600000D01*
X191950000Y-90900000D01*
G37*
X191950000Y-90900000D02*
X195050000Y-90900000D01*
X195050000Y-90900000D02*
X195050000Y-93600000D01*
X195050000Y-93600000D02*
X191950000Y-93600000D01*
X191950000Y-93600000D02*
X191950000Y-90900000D01*
G36*
X191950000Y-90900000D02*
G01*
X195050000Y-90900000D01*
X195050000Y-93600000D01*
X191950000Y-93600000D01*
X191950000Y-90900000D01*
G37*
X191950000Y-90900000D02*
X195050000Y-90900000D01*
X195050000Y-90900000D02*
X195050000Y-93600000D01*
X195050000Y-93600000D02*
X191950000Y-93600000D01*
X191950000Y-93600000D02*
X191950000Y-90900000D01*
G36*
X191950000Y-90900000D02*
G01*
X195050000Y-90900000D01*
X195050000Y-93600000D01*
X191950000Y-93600000D01*
X191950000Y-90900000D01*
G37*
%TO.C,G1*%
G36*
X202500000Y-96750000D02*
G01*
X201750000Y-97250000D01*
X196750000Y-97250000D01*
X196000000Y-96750000D01*
X196750000Y-96250000D01*
X201750000Y-96250000D01*
X202500000Y-96750000D01*
G37*
X202500000Y-96750000D02*
X201750000Y-97250000D01*
X196750000Y-97250000D01*
X196000000Y-96750000D01*
X196750000Y-96250000D01*
X201750000Y-96250000D01*
X202500000Y-96750000D01*
%TD*%
D11*
%TO.C,J1*%
X184500000Y-87700000D03*
D12*
X184500000Y-90240000D03*
X184500000Y-92780000D03*
X184500000Y-95320000D03*
%TD*%
D11*
%TO.C,J2*%
X213500000Y-87700000D03*
D12*
X213500000Y-90240000D03*
X213500000Y-92780000D03*
X213500000Y-95320000D03*
%TD*%
M02*
