%TF.GenerationSoftware,KiCad,Pcbnew,(6.0.7)*%
%TF.CreationDate,2024-10-06T09:26:11-05:00*%
%TF.ProjectId,RGB7Segment,52474237-5365-4676-9d65-6e742e6b6963,rev?*%
%TF.SameCoordinates,Original*%
%TF.FileFunction,Soldermask,Top*%
%TF.FilePolarity,Negative*%
%FSLAX46Y46*%
G04 Gerber Fmt 4.6, Leading zero omitted, Abs format (unit mm)*
G04 Created by KiCad (PCBNEW (6.0.7)) date 2024-10-06 09:26:11*
%MOMM*%
%LPD*%
G01*
G04 APERTURE LIST*
G04 Aperture macros list*
%AMRoundRect*
0 Rectangle with rounded corners*
0 $1 Rounding radius*
0 $2 $3 $4 $5 $6 $7 $8 $9 X,Y pos of 4 corners*
0 Add a 4 corners polygon primitive as box body*
4,1,4,$2,$3,$4,$5,$6,$7,$8,$9,$2,$3,0*
0 Add four circle primitives for the rounded corners*
1,1,$1+$1,$2,$3*
1,1,$1+$1,$4,$5*
1,1,$1+$1,$6,$7*
1,1,$1+$1,$8,$9*
0 Add four rect primitives between the rounded corners*
20,1,$1+$1,$2,$3,$4,$5,0*
20,1,$1+$1,$4,$5,$6,$7,0*
20,1,$1+$1,$6,$7,$8,$9,0*
20,1,$1+$1,$8,$9,$2,$3,0*%
G04 Aperture macros list end*
%ADD10C,0.120000*%
%ADD11RoundRect,0.135000X-0.185000X0.135000X-0.185000X-0.135000X0.185000X-0.135000X0.185000X0.135000X0*%
%ADD12R,1.803400X0.812800*%
%ADD13RoundRect,0.135000X-0.135000X-0.185000X0.135000X-0.185000X0.135000X0.185000X-0.135000X0.185000X0*%
%ADD14R,1.700000X1.700000*%
%ADD15O,1.700000X1.700000*%
%ADD16R,0.812800X1.803400*%
G04 APERTURE END LIST*
D10*
%TO.C,B1*%
X202960000Y-90910000D02*
X206060000Y-90910000D01*
X206060000Y-90910000D02*
X206060000Y-93610000D01*
X206060000Y-93610000D02*
X202960000Y-93610000D01*
X202960000Y-93610000D02*
X202960000Y-90910000D01*
G36*
X202960000Y-90910000D02*
G01*
X206060000Y-90910000D01*
X206060000Y-93610000D01*
X202960000Y-93610000D01*
X202960000Y-90910000D01*
G37*
%TO.C,C1*%
G36*
X205250000Y-98500000D02*
G01*
X205250000Y-103500000D01*
X204750000Y-104250000D01*
X204250000Y-103500000D01*
X204250000Y-98500000D01*
X204750000Y-97750000D01*
X205250000Y-98500000D01*
G37*
X205250000Y-98500000D02*
X205250000Y-103500000D01*
X204750000Y-104250000D01*
X204250000Y-103500000D01*
X204250000Y-98500000D01*
X204750000Y-97750000D01*
X205250000Y-98500000D01*
%TO.C,E1*%
X193200000Y-97650000D02*
X194300000Y-97650000D01*
X194300000Y-97650000D02*
X194300000Y-104350000D01*
X194300000Y-104350000D02*
X193200000Y-104350000D01*
X193200000Y-104350000D02*
X193200000Y-97650000D01*
G36*
X193200000Y-97650000D02*
G01*
X194300000Y-97650000D01*
X194300000Y-104350000D01*
X193200000Y-104350000D01*
X193200000Y-97650000D01*
G37*
%TO.C,F1*%
X191950000Y-90900000D02*
X195050000Y-90900000D01*
X195050000Y-90900000D02*
X195050000Y-93600000D01*
X195050000Y-93600000D02*
X191950000Y-93600000D01*
X191950000Y-93600000D02*
X191950000Y-90900000D01*
G36*
X191950000Y-90900000D02*
G01*
X195050000Y-90900000D01*
X195050000Y-93600000D01*
X191950000Y-93600000D01*
X191950000Y-90900000D01*
G37*
%TO.C,G1*%
G36*
X202500000Y-96750000D02*
G01*
X201750000Y-97250000D01*
X196750000Y-97250000D01*
X196000000Y-96750000D01*
X196750000Y-96250000D01*
X201750000Y-96250000D01*
X202500000Y-96750000D01*
G37*
X202500000Y-96750000D02*
X201750000Y-97250000D01*
X196750000Y-97250000D01*
X196000000Y-96750000D01*
X196750000Y-96250000D01*
X201750000Y-96250000D01*
X202500000Y-96750000D01*
%TD*%
D11*
%TO.C,R1*%
X185250000Y-100740000D03*
X185250000Y-101760000D03*
%TD*%
D12*
%TO.C,B1*%
X201998100Y-91500700D03*
X201998100Y-92999300D03*
X207001900Y-92999300D03*
X207001900Y-91500700D03*
%TD*%
D13*
%TO.C,R2*%
X190490000Y-86750000D03*
X191510000Y-86750000D03*
%TD*%
D12*
%TO.C,D1*%
X196498100Y-104531750D03*
X196498100Y-106030350D03*
X201501900Y-106030350D03*
X201501900Y-104531750D03*
%TD*%
D14*
%TO.C,J1*%
X184500000Y-87700000D03*
D15*
X184500000Y-90240000D03*
X184500000Y-92780000D03*
X184500000Y-95320000D03*
%TD*%
D12*
%TO.C,A1*%
X196498100Y-87031750D03*
X196498100Y-88530350D03*
X201501900Y-88530350D03*
X201501900Y-87031750D03*
%TD*%
D14*
%TO.C,J2*%
X213500000Y-87700000D03*
D15*
X213500000Y-90240000D03*
X213500000Y-92780000D03*
X213500000Y-95320000D03*
%TD*%
D12*
%TO.C,C1*%
X202248100Y-100250700D03*
X202248100Y-101749300D03*
X207251900Y-101749300D03*
X207251900Y-100250700D03*
%TD*%
%TO.C,E1*%
X191248100Y-100250700D03*
X191248100Y-101749300D03*
X196251900Y-101749300D03*
X196251900Y-100250700D03*
%TD*%
%TO.C,F1*%
X190998100Y-91500700D03*
X190998100Y-92999300D03*
X196001900Y-92999300D03*
X196001900Y-91500700D03*
%TD*%
D16*
%TO.C,G1*%
X198500700Y-99251900D03*
X199999300Y-99251900D03*
X199999300Y-94248100D03*
X198500700Y-94248100D03*
%TD*%
M02*
