%TF.GenerationSoftware,KiCad,Pcbnew,(6.0.7)*%
%TF.CreationDate,2024-10-06T09:26:11-05:00*%
%TF.ProjectId,RGB7Segment,52474237-5365-4676-9d65-6e742e6b6963,rev?*%
%TF.SameCoordinates,Original*%
%TF.FileFunction,Copper,L2,Bot*%
%TF.FilePolarity,Positive*%
%FSLAX46Y46*%
G04 Gerber Fmt 4.6, Leading zero omitted, Abs format (unit mm)*
G04 Created by KiCad (PCBNEW (6.0.7)) date 2024-10-06 09:26:11*
%MOMM*%
%LPD*%
G01*
G04 APERTURE LIST*
%TA.AperFunction,ComponentPad*%
%ADD10R,1.700000X1.700000*%
%TD*%
%TA.AperFunction,ComponentPad*%
%ADD11O,1.700000X1.700000*%
%TD*%
%TA.AperFunction,ViaPad*%
%ADD12C,0.800000*%
%TD*%
G04 APERTURE END LIST*
D10*
%TO.P,J1,1,Pin_1*%
%TO.N,+3V3*%
X184500000Y-87700000D03*
D11*
%TO.P,J1,2,Pin_2*%
%TO.N,/DIN*%
X184500000Y-90240000D03*
%TO.P,J1,3,Pin_3*%
%TO.N,unconnected-(J1-Pad3)*%
X184500000Y-92780000D03*
%TO.P,J1,4,Pin_4*%
%TO.N,GND*%
X184500000Y-95320000D03*
%TD*%
D10*
%TO.P,J2,1,Pin_1*%
%TO.N,+3V3*%
X213500000Y-87700000D03*
D11*
%TO.P,J2,2,Pin_2*%
%TO.N,unconnected-(J2-Pad2)*%
X213500000Y-90240000D03*
%TO.P,J2,3,Pin_3*%
%TO.N,/DOUT*%
X213500000Y-92780000D03*
%TO.P,J2,4,Pin_4*%
%TO.N,GND*%
X213500000Y-95320000D03*
%TD*%
D12*
%TO.N,GND*%
X203250000Y-88500000D03*
X196000000Y-94250000D03*
X209000000Y-101750000D03*
X200000000Y-92500000D03*
X203250000Y-106250000D03*
X197750000Y-101750000D03*
X208750000Y-93000000D03*
%TD*%
%TA.AperFunction,Conductor*%
%TO.N,GND*%
G36*
X215433621Y-85028502D02*
G01*
X215480114Y-85082158D01*
X215491500Y-85134500D01*
X215491500Y-107865500D01*
X215471498Y-107933621D01*
X215417842Y-107980114D01*
X215365500Y-107991500D01*
X182634500Y-107991500D01*
X182566379Y-107971498D01*
X182519886Y-107917842D01*
X182508500Y-107865500D01*
X182508500Y-106747771D01*
X196890824Y-106747771D01*
X196893291Y-106756402D01*
X196898950Y-106776203D01*
X196902528Y-106792965D01*
X196906720Y-106822237D01*
X196910434Y-106830405D01*
X196910434Y-106830406D01*
X196917348Y-106845612D01*
X196923796Y-106863136D01*
X196930851Y-106887821D01*
X196935643Y-106895415D01*
X196935644Y-106895418D01*
X196946630Y-106912830D01*
X196954769Y-106927913D01*
X196967008Y-106954832D01*
X196972869Y-106961634D01*
X196983770Y-106974285D01*
X196994873Y-106989289D01*
X197008576Y-107011008D01*
X197015301Y-107016947D01*
X197015304Y-107016951D01*
X197030738Y-107030582D01*
X197042782Y-107042774D01*
X197056227Y-107058377D01*
X197056230Y-107058379D01*
X197062087Y-107065177D01*
X197069616Y-107070057D01*
X197069617Y-107070058D01*
X197083635Y-107079144D01*
X197098509Y-107090435D01*
X197111017Y-107101481D01*
X197117751Y-107107428D01*
X197144511Y-107119992D01*
X197159491Y-107128313D01*
X197176783Y-107139521D01*
X197176788Y-107139523D01*
X197184315Y-107144402D01*
X197192908Y-107146972D01*
X197192913Y-107146974D01*
X197208920Y-107151761D01*
X197226364Y-107158422D01*
X197241476Y-107165517D01*
X197241478Y-107165518D01*
X197249600Y-107169331D01*
X197258467Y-107170712D01*
X197258468Y-107170712D01*
X197261153Y-107171130D01*
X197278817Y-107173880D01*
X197295532Y-107177663D01*
X197315266Y-107183565D01*
X197315272Y-107183566D01*
X197323866Y-107186136D01*
X197332837Y-107186191D01*
X197332838Y-107186191D01*
X197342897Y-107186252D01*
X197358306Y-107186346D01*
X197359089Y-107186379D01*
X197360186Y-107186550D01*
X197391177Y-107186550D01*
X197391947Y-107186552D01*
X197465585Y-107187002D01*
X197465586Y-107187002D01*
X197469521Y-107187026D01*
X197470865Y-107186642D01*
X197472210Y-107186550D01*
X200591577Y-107186550D01*
X200592348Y-107186552D01*
X200669921Y-107187026D01*
X200698352Y-107178900D01*
X200715115Y-107175322D01*
X200715953Y-107175202D01*
X200744387Y-107171130D01*
X200767764Y-107160501D01*
X200785287Y-107154054D01*
X200809971Y-107146999D01*
X200817565Y-107142207D01*
X200817568Y-107142206D01*
X200834980Y-107131220D01*
X200850065Y-107123080D01*
X200876982Y-107110842D01*
X200896435Y-107094080D01*
X200911439Y-107082977D01*
X200933158Y-107069274D01*
X200939097Y-107062549D01*
X200939101Y-107062546D01*
X200952732Y-107047112D01*
X200964924Y-107035068D01*
X200980527Y-107021623D01*
X200980529Y-107021620D01*
X200987327Y-107015763D01*
X201001294Y-106994215D01*
X201012585Y-106979341D01*
X201023631Y-106966833D01*
X201023632Y-106966832D01*
X201029578Y-106960099D01*
X201042143Y-106933337D01*
X201050463Y-106918359D01*
X201061671Y-106901067D01*
X201061673Y-106901062D01*
X201066552Y-106893535D01*
X201069122Y-106884942D01*
X201069124Y-106884937D01*
X201073911Y-106868930D01*
X201080572Y-106851486D01*
X201087667Y-106836374D01*
X201087668Y-106836372D01*
X201091481Y-106828250D01*
X201096030Y-106799033D01*
X201099813Y-106782318D01*
X201105715Y-106762584D01*
X201105716Y-106762578D01*
X201108286Y-106753984D01*
X201108496Y-106719544D01*
X201108529Y-106718761D01*
X201108700Y-106717664D01*
X201108700Y-106686673D01*
X201108702Y-106685903D01*
X201109152Y-106612265D01*
X201109152Y-106612264D01*
X201109176Y-106608329D01*
X201108792Y-106606985D01*
X201108700Y-106605640D01*
X201108700Y-103892673D01*
X201108702Y-103891903D01*
X201109000Y-103843152D01*
X201109176Y-103814329D01*
X201101050Y-103785897D01*
X201097472Y-103769135D01*
X201094552Y-103748748D01*
X201093280Y-103739863D01*
X201082651Y-103716486D01*
X201076204Y-103698963D01*
X201071616Y-103682912D01*
X201069149Y-103674279D01*
X201064356Y-103666682D01*
X201053370Y-103649270D01*
X201045230Y-103634185D01*
X201042764Y-103628761D01*
X201032992Y-103607268D01*
X201016230Y-103587815D01*
X201005127Y-103572811D01*
X200991424Y-103551092D01*
X200984699Y-103545153D01*
X200984696Y-103545149D01*
X200969262Y-103531518D01*
X200957218Y-103519326D01*
X200943773Y-103503723D01*
X200943770Y-103503721D01*
X200940564Y-103500000D01*
X204250000Y-103500000D01*
X204260347Y-103515521D01*
X204260348Y-103515523D01*
X204500285Y-103875427D01*
X204750000Y-104250000D01*
X205070577Y-103769135D01*
X205239652Y-103515523D01*
X205239653Y-103515521D01*
X205250000Y-103500000D01*
X205250000Y-98500000D01*
X205239653Y-98484479D01*
X205239652Y-98484477D01*
X204760049Y-97765074D01*
X204750000Y-97750000D01*
X204739951Y-97765074D01*
X204260348Y-98484477D01*
X204260347Y-98484479D01*
X204250000Y-98500000D01*
X204250000Y-103500000D01*
X200940564Y-103500000D01*
X200937913Y-103496923D01*
X200924209Y-103488040D01*
X200916365Y-103482956D01*
X200901491Y-103471665D01*
X200888983Y-103460619D01*
X200888982Y-103460618D01*
X200882249Y-103454672D01*
X200855487Y-103442107D01*
X200840509Y-103433787D01*
X200823217Y-103422579D01*
X200823212Y-103422577D01*
X200815685Y-103417698D01*
X200807092Y-103415128D01*
X200807087Y-103415126D01*
X200791080Y-103410339D01*
X200773636Y-103403678D01*
X200758524Y-103396583D01*
X200758522Y-103396582D01*
X200750400Y-103392769D01*
X200741533Y-103391388D01*
X200741532Y-103391388D01*
X200730678Y-103389698D01*
X200721183Y-103388220D01*
X200704468Y-103384437D01*
X200684734Y-103378535D01*
X200684728Y-103378534D01*
X200676134Y-103375964D01*
X200667163Y-103375909D01*
X200667162Y-103375909D01*
X200657103Y-103375848D01*
X200641694Y-103375754D01*
X200640911Y-103375721D01*
X200639814Y-103375550D01*
X200608823Y-103375550D01*
X200608053Y-103375548D01*
X200534415Y-103375098D01*
X200534414Y-103375098D01*
X200530479Y-103375074D01*
X200529135Y-103375458D01*
X200527790Y-103375550D01*
X197408423Y-103375550D01*
X197407653Y-103375548D01*
X197406837Y-103375543D01*
X197330079Y-103375074D01*
X197307718Y-103381465D01*
X197301647Y-103383200D01*
X197284885Y-103386778D01*
X197255613Y-103390970D01*
X197247445Y-103394684D01*
X197247444Y-103394684D01*
X197232238Y-103401598D01*
X197214714Y-103408046D01*
X197190029Y-103415101D01*
X197182435Y-103419893D01*
X197182432Y-103419894D01*
X197165020Y-103430880D01*
X197149937Y-103439019D01*
X197123018Y-103451258D01*
X197116216Y-103457119D01*
X197103565Y-103468020D01*
X197088561Y-103479123D01*
X197066842Y-103492826D01*
X197060903Y-103499551D01*
X197060899Y-103499554D01*
X197047268Y-103514988D01*
X197035076Y-103527032D01*
X197019473Y-103540477D01*
X197019471Y-103540480D01*
X197012673Y-103546337D01*
X197007793Y-103553866D01*
X197007792Y-103553867D01*
X196998706Y-103567885D01*
X196987415Y-103582759D01*
X196976369Y-103595267D01*
X196970422Y-103602001D01*
X196964112Y-103615441D01*
X196957858Y-103628761D01*
X196949537Y-103643741D01*
X196938329Y-103661033D01*
X196938327Y-103661038D01*
X196933448Y-103668565D01*
X196930878Y-103677158D01*
X196930876Y-103677163D01*
X196926089Y-103693170D01*
X196919428Y-103710614D01*
X196912333Y-103725726D01*
X196908519Y-103733850D01*
X196907138Y-103742717D01*
X196907138Y-103742718D01*
X196903970Y-103763065D01*
X196900187Y-103779782D01*
X196894285Y-103799516D01*
X196894284Y-103799522D01*
X196891714Y-103808116D01*
X196891659Y-103817087D01*
X196891659Y-103817088D01*
X196891504Y-103842547D01*
X196891471Y-103843339D01*
X196891300Y-103844436D01*
X196891300Y-103875427D01*
X196891298Y-103876197D01*
X196890824Y-103953771D01*
X196891208Y-103955115D01*
X196891300Y-103956460D01*
X196891300Y-106669427D01*
X196891298Y-106670197D01*
X196890824Y-106747771D01*
X182508500Y-106747771D01*
X182508500Y-104400000D01*
X193150000Y-104400000D01*
X194350000Y-104400000D01*
X194350000Y-97600000D01*
X193150000Y-97600000D01*
X193150000Y-104400000D01*
X182508500Y-104400000D01*
X182508500Y-96750000D01*
X196000000Y-96750000D01*
X196015074Y-96760049D01*
X196734477Y-97239651D01*
X196734479Y-97239652D01*
X196750000Y-97249999D01*
X201750000Y-97249999D01*
X201765521Y-97239652D01*
X201765523Y-97239651D01*
X202484926Y-96760049D01*
X202500000Y-96750000D01*
X201920687Y-96363792D01*
X201765523Y-96260349D01*
X201765521Y-96260348D01*
X201750000Y-96250001D01*
X196750000Y-96250001D01*
X196734479Y-96260348D01*
X196734477Y-96260349D01*
X196579313Y-96363792D01*
X196000000Y-96750000D01*
X182508500Y-96750000D01*
X182508500Y-95587966D01*
X183168257Y-95587966D01*
X183198565Y-95722446D01*
X183201645Y-95732275D01*
X183281770Y-95929603D01*
X183286413Y-95938794D01*
X183397694Y-96120388D01*
X183403777Y-96128699D01*
X183543213Y-96289667D01*
X183550580Y-96296883D01*
X183714434Y-96432916D01*
X183722881Y-96438831D01*
X183906756Y-96546279D01*
X183916042Y-96550729D01*
X184115001Y-96626703D01*
X184124899Y-96629579D01*
X184228250Y-96650606D01*
X184242299Y-96649410D01*
X184246000Y-96639065D01*
X184246000Y-96638517D01*
X184754000Y-96638517D01*
X184758064Y-96652359D01*
X184771478Y-96654393D01*
X184778184Y-96653534D01*
X184788262Y-96651392D01*
X184992255Y-96590191D01*
X185001842Y-96586433D01*
X185193095Y-96492739D01*
X185201945Y-96487464D01*
X185375328Y-96363792D01*
X185383200Y-96357139D01*
X185534052Y-96206812D01*
X185540730Y-96198965D01*
X185665003Y-96026020D01*
X185670313Y-96017183D01*
X185764670Y-95826267D01*
X185768469Y-95816672D01*
X185830377Y-95612910D01*
X185832555Y-95602837D01*
X185833986Y-95591962D01*
X185833363Y-95587966D01*
X212168257Y-95587966D01*
X212198565Y-95722446D01*
X212201645Y-95732275D01*
X212281770Y-95929603D01*
X212286413Y-95938794D01*
X212397694Y-96120388D01*
X212403777Y-96128699D01*
X212543213Y-96289667D01*
X212550580Y-96296883D01*
X212714434Y-96432916D01*
X212722881Y-96438831D01*
X212906756Y-96546279D01*
X212916042Y-96550729D01*
X213115001Y-96626703D01*
X213124899Y-96629579D01*
X213228250Y-96650606D01*
X213242299Y-96649410D01*
X213246000Y-96639065D01*
X213246000Y-96638517D01*
X213754000Y-96638517D01*
X213758064Y-96652359D01*
X213771478Y-96654393D01*
X213778184Y-96653534D01*
X213788262Y-96651392D01*
X213992255Y-96590191D01*
X214001842Y-96586433D01*
X214193095Y-96492739D01*
X214201945Y-96487464D01*
X214375328Y-96363792D01*
X214383200Y-96357139D01*
X214534052Y-96206812D01*
X214540730Y-96198965D01*
X214665003Y-96026020D01*
X214670313Y-96017183D01*
X214764670Y-95826267D01*
X214768469Y-95816672D01*
X214830377Y-95612910D01*
X214832555Y-95602837D01*
X214833986Y-95591962D01*
X214831775Y-95577778D01*
X214818617Y-95574000D01*
X213772115Y-95574000D01*
X213756876Y-95578475D01*
X213755671Y-95579865D01*
X213754000Y-95587548D01*
X213754000Y-96638517D01*
X213246000Y-96638517D01*
X213246000Y-95592115D01*
X213241525Y-95576876D01*
X213240135Y-95575671D01*
X213232452Y-95574000D01*
X212183225Y-95574000D01*
X212169694Y-95577973D01*
X212168257Y-95587966D01*
X185833363Y-95587966D01*
X185831775Y-95577778D01*
X185818617Y-95574000D01*
X184772115Y-95574000D01*
X184756876Y-95578475D01*
X184755671Y-95579865D01*
X184754000Y-95587548D01*
X184754000Y-96638517D01*
X184246000Y-96638517D01*
X184246000Y-95592115D01*
X184241525Y-95576876D01*
X184240135Y-95575671D01*
X184232452Y-95574000D01*
X183183225Y-95574000D01*
X183169694Y-95577973D01*
X183168257Y-95587966D01*
X182508500Y-95587966D01*
X182508500Y-92746695D01*
X183137251Y-92746695D01*
X183137548Y-92751848D01*
X183137548Y-92751851D01*
X183143011Y-92846590D01*
X183150110Y-92969715D01*
X183151247Y-92974761D01*
X183151248Y-92974767D01*
X183171119Y-93062939D01*
X183199222Y-93187639D01*
X183283266Y-93394616D01*
X183399987Y-93585088D01*
X183546250Y-93753938D01*
X183718126Y-93896632D01*
X183791955Y-93939774D01*
X183840679Y-93991412D01*
X183853750Y-94061195D01*
X183827019Y-94126967D01*
X183786562Y-94160327D01*
X183778457Y-94164546D01*
X183769738Y-94170036D01*
X183599433Y-94297905D01*
X183591726Y-94304748D01*
X183444590Y-94458717D01*
X183438104Y-94466727D01*
X183318098Y-94642649D01*
X183313000Y-94651623D01*
X183223338Y-94844783D01*
X183219775Y-94854470D01*
X183164389Y-95054183D01*
X183165912Y-95062607D01*
X183178292Y-95066000D01*
X185818344Y-95066000D01*
X185831875Y-95062027D01*
X185833180Y-95052947D01*
X185791214Y-94885875D01*
X185787894Y-94876124D01*
X185702972Y-94680814D01*
X185698105Y-94671739D01*
X185582426Y-94492926D01*
X185576136Y-94484757D01*
X185432806Y-94327240D01*
X185425273Y-94320215D01*
X185258139Y-94188222D01*
X185249556Y-94182520D01*
X185212602Y-94162120D01*
X185162631Y-94111687D01*
X185147859Y-94042245D01*
X185172975Y-93975839D01*
X185200327Y-93949232D01*
X185223797Y-93932491D01*
X185379860Y-93821173D01*
X185538096Y-93663489D01*
X185547789Y-93650000D01*
X191900000Y-93650000D01*
X195100200Y-93650000D01*
X195100000Y-90850000D01*
X202899800Y-90850000D01*
X202900000Y-93650000D01*
X206100200Y-93650000D01*
X206100135Y-92746695D01*
X212137251Y-92746695D01*
X212137548Y-92751848D01*
X212137548Y-92751851D01*
X212143011Y-92846590D01*
X212150110Y-92969715D01*
X212151247Y-92974761D01*
X212151248Y-92974767D01*
X212171119Y-93062939D01*
X212199222Y-93187639D01*
X212283266Y-93394616D01*
X212399987Y-93585088D01*
X212546250Y-93753938D01*
X212718126Y-93896632D01*
X212791955Y-93939774D01*
X212840679Y-93991412D01*
X212853750Y-94061195D01*
X212827019Y-94126967D01*
X212786562Y-94160327D01*
X212778457Y-94164546D01*
X212769738Y-94170036D01*
X212599433Y-94297905D01*
X212591726Y-94304748D01*
X212444590Y-94458717D01*
X212438104Y-94466727D01*
X212318098Y-94642649D01*
X212313000Y-94651623D01*
X212223338Y-94844783D01*
X212219775Y-94854470D01*
X212164389Y-95054183D01*
X212165912Y-95062607D01*
X212178292Y-95066000D01*
X214818344Y-95066000D01*
X214831875Y-95062027D01*
X214833180Y-95052947D01*
X214791214Y-94885875D01*
X214787894Y-94876124D01*
X214702972Y-94680814D01*
X214698105Y-94671739D01*
X214582426Y-94492926D01*
X214576136Y-94484757D01*
X214432806Y-94327240D01*
X214425273Y-94320215D01*
X214258139Y-94188222D01*
X214249556Y-94182520D01*
X214212602Y-94162120D01*
X214162631Y-94111687D01*
X214147859Y-94042245D01*
X214172975Y-93975839D01*
X214200327Y-93949232D01*
X214223797Y-93932491D01*
X214379860Y-93821173D01*
X214538096Y-93663489D01*
X214549856Y-93647124D01*
X214665435Y-93486277D01*
X214668453Y-93482077D01*
X214767430Y-93281811D01*
X214832370Y-93068069D01*
X214861529Y-92846590D01*
X214863156Y-92780000D01*
X214844852Y-92557361D01*
X214790431Y-92340702D01*
X214701354Y-92135840D01*
X214580014Y-91948277D01*
X214429670Y-91783051D01*
X214425619Y-91779852D01*
X214425615Y-91779848D01*
X214258414Y-91647800D01*
X214258410Y-91647798D01*
X214254359Y-91644598D01*
X214213053Y-91621796D01*
X214163084Y-91571364D01*
X214148312Y-91501921D01*
X214173428Y-91435516D01*
X214200780Y-91408909D01*
X214244603Y-91377650D01*
X214379860Y-91281173D01*
X214538096Y-91123489D01*
X214597594Y-91040689D01*
X214665435Y-90946277D01*
X214668453Y-90942077D01*
X214711062Y-90855865D01*
X214765136Y-90746453D01*
X214765137Y-90746451D01*
X214767430Y-90741811D01*
X214832370Y-90528069D01*
X214861529Y-90306590D01*
X214863156Y-90240000D01*
X214844852Y-90017361D01*
X214790431Y-89800702D01*
X214701354Y-89595840D01*
X214646474Y-89511008D01*
X214582822Y-89412617D01*
X214582820Y-89412614D01*
X214580014Y-89408277D01*
X214576532Y-89404450D01*
X214432798Y-89246488D01*
X214401746Y-89182642D01*
X214410141Y-89112143D01*
X214455317Y-89057375D01*
X214481761Y-89043706D01*
X214588297Y-89003767D01*
X214596705Y-89000615D01*
X214713261Y-88913261D01*
X214800615Y-88796705D01*
X214851745Y-88660316D01*
X214858500Y-88598134D01*
X214858500Y-86801866D01*
X214851745Y-86739684D01*
X214800615Y-86603295D01*
X214713261Y-86486739D01*
X214596705Y-86399385D01*
X214460316Y-86348255D01*
X214398134Y-86341500D01*
X212601866Y-86341500D01*
X212539684Y-86348255D01*
X212403295Y-86399385D01*
X212286739Y-86486739D01*
X212199385Y-86603295D01*
X212148255Y-86739684D01*
X212141500Y-86801866D01*
X212141500Y-88598134D01*
X212148255Y-88660316D01*
X212199385Y-88796705D01*
X212286739Y-88913261D01*
X212403295Y-89000615D01*
X212411704Y-89003767D01*
X212411705Y-89003768D01*
X212520451Y-89044535D01*
X212577216Y-89087176D01*
X212601916Y-89153738D01*
X212586709Y-89223087D01*
X212567316Y-89249568D01*
X212440629Y-89382138D01*
X212437715Y-89386410D01*
X212437714Y-89386411D01*
X212382854Y-89466833D01*
X212314743Y-89566680D01*
X212279685Y-89642206D01*
X212259101Y-89686552D01*
X212220688Y-89769305D01*
X212160989Y-89984570D01*
X212137251Y-90206695D01*
X212137548Y-90211848D01*
X212137548Y-90211851D01*
X212143011Y-90306590D01*
X212150110Y-90429715D01*
X212151247Y-90434761D01*
X212151248Y-90434767D01*
X212171119Y-90522939D01*
X212199222Y-90647639D01*
X212283266Y-90854616D01*
X212399987Y-91045088D01*
X212546250Y-91213938D01*
X212718126Y-91356632D01*
X212788595Y-91397811D01*
X212791445Y-91399476D01*
X212840169Y-91451114D01*
X212853240Y-91520897D01*
X212826509Y-91586669D01*
X212786055Y-91620027D01*
X212773607Y-91626507D01*
X212769474Y-91629610D01*
X212769471Y-91629612D01*
X212745247Y-91647800D01*
X212594965Y-91760635D01*
X212440629Y-91922138D01*
X212314743Y-92106680D01*
X212220688Y-92309305D01*
X212160989Y-92524570D01*
X212137251Y-92746695D01*
X206100135Y-92746695D01*
X206100000Y-90850000D01*
X202899800Y-90850000D01*
X195100000Y-90850000D01*
X191900000Y-90850000D01*
X191900000Y-93650000D01*
X185547789Y-93650000D01*
X185549856Y-93647124D01*
X185665435Y-93486277D01*
X185668453Y-93482077D01*
X185767430Y-93281811D01*
X185832370Y-93068069D01*
X185861529Y-92846590D01*
X185863156Y-92780000D01*
X185844852Y-92557361D01*
X185790431Y-92340702D01*
X185701354Y-92135840D01*
X185580014Y-91948277D01*
X185429670Y-91783051D01*
X185425619Y-91779852D01*
X185425615Y-91779848D01*
X185258414Y-91647800D01*
X185258410Y-91647798D01*
X185254359Y-91644598D01*
X185213053Y-91621796D01*
X185163084Y-91571364D01*
X185148312Y-91501921D01*
X185173428Y-91435516D01*
X185200780Y-91408909D01*
X185244603Y-91377650D01*
X185379860Y-91281173D01*
X185538096Y-91123489D01*
X185597594Y-91040689D01*
X185665435Y-90946277D01*
X185668453Y-90942077D01*
X185711062Y-90855865D01*
X185765136Y-90746453D01*
X185765137Y-90746451D01*
X185767430Y-90741811D01*
X185832370Y-90528069D01*
X185861529Y-90306590D01*
X185863156Y-90240000D01*
X185844852Y-90017361D01*
X185790431Y-89800702D01*
X185701354Y-89595840D01*
X185646474Y-89511008D01*
X185582822Y-89412617D01*
X185582820Y-89412614D01*
X185580014Y-89408277D01*
X185576532Y-89404450D01*
X185433965Y-89247771D01*
X196890824Y-89247771D01*
X196893291Y-89256402D01*
X196898950Y-89276203D01*
X196902528Y-89292965D01*
X196906720Y-89322237D01*
X196910434Y-89330405D01*
X196910434Y-89330406D01*
X196917348Y-89345612D01*
X196923796Y-89363136D01*
X196930851Y-89387821D01*
X196935643Y-89395415D01*
X196935644Y-89395418D01*
X196946630Y-89412830D01*
X196954769Y-89427913D01*
X196967008Y-89454832D01*
X196972869Y-89461634D01*
X196983770Y-89474285D01*
X196994873Y-89489289D01*
X197008576Y-89511008D01*
X197015301Y-89516947D01*
X197015304Y-89516951D01*
X197030738Y-89530582D01*
X197042782Y-89542774D01*
X197056227Y-89558377D01*
X197056230Y-89558379D01*
X197062087Y-89565177D01*
X197069616Y-89570057D01*
X197069617Y-89570058D01*
X197083635Y-89579144D01*
X197098509Y-89590435D01*
X197110008Y-89600590D01*
X197117751Y-89607428D01*
X197144511Y-89619992D01*
X197159491Y-89628313D01*
X197176783Y-89639521D01*
X197176788Y-89639523D01*
X197184315Y-89644402D01*
X197192908Y-89646972D01*
X197192913Y-89646974D01*
X197208920Y-89651761D01*
X197226364Y-89658422D01*
X197241476Y-89665517D01*
X197241478Y-89665518D01*
X197249600Y-89669331D01*
X197258467Y-89670712D01*
X197258468Y-89670712D01*
X197261153Y-89671130D01*
X197278817Y-89673880D01*
X197295532Y-89677663D01*
X197315266Y-89683565D01*
X197315272Y-89683566D01*
X197323866Y-89686136D01*
X197332837Y-89686191D01*
X197332838Y-89686191D01*
X197342897Y-89686252D01*
X197358306Y-89686346D01*
X197359089Y-89686379D01*
X197360186Y-89686550D01*
X197391177Y-89686550D01*
X197391947Y-89686552D01*
X197465585Y-89687002D01*
X197465586Y-89687002D01*
X197469521Y-89687026D01*
X197470865Y-89686642D01*
X197472210Y-89686550D01*
X200591577Y-89686550D01*
X200592348Y-89686552D01*
X200669921Y-89687026D01*
X200698352Y-89678900D01*
X200715115Y-89675322D01*
X200715953Y-89675202D01*
X200744387Y-89671130D01*
X200767764Y-89660501D01*
X200785287Y-89654054D01*
X200809971Y-89646999D01*
X200817565Y-89642207D01*
X200817568Y-89642206D01*
X200834980Y-89631220D01*
X200850065Y-89623080D01*
X200876982Y-89610842D01*
X200896435Y-89594080D01*
X200911439Y-89582977D01*
X200933158Y-89569274D01*
X200939097Y-89562549D01*
X200939101Y-89562546D01*
X200952732Y-89547112D01*
X200964924Y-89535068D01*
X200980527Y-89521623D01*
X200980529Y-89521620D01*
X200987327Y-89515763D01*
X201001294Y-89494215D01*
X201012585Y-89479341D01*
X201023631Y-89466833D01*
X201023632Y-89466832D01*
X201029578Y-89460099D01*
X201042143Y-89433337D01*
X201050463Y-89418359D01*
X201061671Y-89401067D01*
X201061673Y-89401062D01*
X201066552Y-89393535D01*
X201069122Y-89384942D01*
X201069124Y-89384937D01*
X201073911Y-89368930D01*
X201080572Y-89351486D01*
X201087667Y-89336374D01*
X201087668Y-89336372D01*
X201091481Y-89328250D01*
X201096030Y-89299033D01*
X201099813Y-89282318D01*
X201105715Y-89262584D01*
X201105716Y-89262578D01*
X201108286Y-89253984D01*
X201108496Y-89219544D01*
X201108529Y-89218761D01*
X201108700Y-89217664D01*
X201108700Y-89186673D01*
X201108702Y-89185903D01*
X201109152Y-89112265D01*
X201109152Y-89112264D01*
X201109176Y-89108329D01*
X201108792Y-89106985D01*
X201108700Y-89105640D01*
X201108700Y-86392673D01*
X201108702Y-86391903D01*
X201109000Y-86343152D01*
X201109176Y-86314329D01*
X201101050Y-86285897D01*
X201097472Y-86269135D01*
X201094552Y-86248748D01*
X201093280Y-86239863D01*
X201082651Y-86216486D01*
X201076204Y-86198963D01*
X201071616Y-86182912D01*
X201069149Y-86174279D01*
X201064356Y-86166682D01*
X201053370Y-86149270D01*
X201045230Y-86134185D01*
X201042764Y-86128761D01*
X201032992Y-86107268D01*
X201016230Y-86087815D01*
X201005127Y-86072811D01*
X200991424Y-86051092D01*
X200984699Y-86045153D01*
X200984696Y-86045149D01*
X200969262Y-86031518D01*
X200957218Y-86019326D01*
X200943773Y-86003723D01*
X200943770Y-86003721D01*
X200937913Y-85996923D01*
X200924209Y-85988040D01*
X200916365Y-85982956D01*
X200901491Y-85971665D01*
X200888983Y-85960619D01*
X200888982Y-85960618D01*
X200882249Y-85954672D01*
X200855487Y-85942107D01*
X200840509Y-85933787D01*
X200823217Y-85922579D01*
X200823212Y-85922577D01*
X200815685Y-85917698D01*
X200807092Y-85915128D01*
X200807087Y-85915126D01*
X200791080Y-85910339D01*
X200773636Y-85903678D01*
X200758524Y-85896583D01*
X200758522Y-85896582D01*
X200750400Y-85892769D01*
X200741533Y-85891388D01*
X200741532Y-85891388D01*
X200730678Y-85889698D01*
X200721183Y-85888220D01*
X200704468Y-85884437D01*
X200684734Y-85878535D01*
X200684728Y-85878534D01*
X200676134Y-85875964D01*
X200667163Y-85875909D01*
X200667162Y-85875909D01*
X200657103Y-85875848D01*
X200641694Y-85875754D01*
X200640911Y-85875721D01*
X200639814Y-85875550D01*
X200608823Y-85875550D01*
X200608053Y-85875548D01*
X200534415Y-85875098D01*
X200534414Y-85875098D01*
X200530479Y-85875074D01*
X200529135Y-85875458D01*
X200527790Y-85875550D01*
X197408423Y-85875550D01*
X197407653Y-85875548D01*
X197406837Y-85875543D01*
X197330079Y-85875074D01*
X197307718Y-85881465D01*
X197301647Y-85883200D01*
X197284885Y-85886778D01*
X197255613Y-85890970D01*
X197247445Y-85894684D01*
X197247444Y-85894684D01*
X197232238Y-85901598D01*
X197214714Y-85908046D01*
X197190029Y-85915101D01*
X197182435Y-85919893D01*
X197182432Y-85919894D01*
X197165020Y-85930880D01*
X197149937Y-85939019D01*
X197123018Y-85951258D01*
X197116216Y-85957119D01*
X197103565Y-85968020D01*
X197088561Y-85979123D01*
X197066842Y-85992826D01*
X197060903Y-85999551D01*
X197060899Y-85999554D01*
X197047268Y-86014988D01*
X197035076Y-86027032D01*
X197019473Y-86040477D01*
X197019471Y-86040480D01*
X197012673Y-86046337D01*
X197007793Y-86053866D01*
X197007792Y-86053867D01*
X196998706Y-86067885D01*
X196987415Y-86082759D01*
X196976369Y-86095267D01*
X196970422Y-86102001D01*
X196964112Y-86115441D01*
X196957858Y-86128761D01*
X196949537Y-86143741D01*
X196938329Y-86161033D01*
X196938327Y-86161038D01*
X196933448Y-86168565D01*
X196930878Y-86177158D01*
X196930876Y-86177163D01*
X196926089Y-86193170D01*
X196919428Y-86210614D01*
X196912333Y-86225726D01*
X196908519Y-86233850D01*
X196907138Y-86242717D01*
X196907138Y-86242718D01*
X196903970Y-86263065D01*
X196900187Y-86279782D01*
X196894285Y-86299516D01*
X196894284Y-86299522D01*
X196891714Y-86308116D01*
X196891659Y-86317087D01*
X196891659Y-86317088D01*
X196891504Y-86342547D01*
X196891471Y-86343339D01*
X196891300Y-86344436D01*
X196891300Y-86375427D01*
X196891298Y-86376197D01*
X196890824Y-86453771D01*
X196891208Y-86455115D01*
X196891300Y-86456460D01*
X196891300Y-89169427D01*
X196891298Y-89170197D01*
X196890824Y-89247771D01*
X185433965Y-89247771D01*
X185432798Y-89246488D01*
X185401746Y-89182642D01*
X185410141Y-89112143D01*
X185455317Y-89057375D01*
X185481761Y-89043706D01*
X185588297Y-89003767D01*
X185596705Y-89000615D01*
X185713261Y-88913261D01*
X185800615Y-88796705D01*
X185851745Y-88660316D01*
X185858500Y-88598134D01*
X185858500Y-86801866D01*
X185851745Y-86739684D01*
X185800615Y-86603295D01*
X185713261Y-86486739D01*
X185596705Y-86399385D01*
X185460316Y-86348255D01*
X185398134Y-86341500D01*
X183601866Y-86341500D01*
X183539684Y-86348255D01*
X183403295Y-86399385D01*
X183286739Y-86486739D01*
X183199385Y-86603295D01*
X183148255Y-86739684D01*
X183141500Y-86801866D01*
X183141500Y-88598134D01*
X183148255Y-88660316D01*
X183199385Y-88796705D01*
X183286739Y-88913261D01*
X183403295Y-89000615D01*
X183411704Y-89003767D01*
X183411705Y-89003768D01*
X183520451Y-89044535D01*
X183577216Y-89087176D01*
X183601916Y-89153738D01*
X183586709Y-89223087D01*
X183567316Y-89249568D01*
X183440629Y-89382138D01*
X183437715Y-89386410D01*
X183437714Y-89386411D01*
X183382854Y-89466833D01*
X183314743Y-89566680D01*
X183279685Y-89642206D01*
X183259101Y-89686552D01*
X183220688Y-89769305D01*
X183160989Y-89984570D01*
X183137251Y-90206695D01*
X183137548Y-90211848D01*
X183137548Y-90211851D01*
X183143011Y-90306590D01*
X183150110Y-90429715D01*
X183151247Y-90434761D01*
X183151248Y-90434767D01*
X183171119Y-90522939D01*
X183199222Y-90647639D01*
X183283266Y-90854616D01*
X183399987Y-91045088D01*
X183546250Y-91213938D01*
X183718126Y-91356632D01*
X183788595Y-91397811D01*
X183791445Y-91399476D01*
X183840169Y-91451114D01*
X183853240Y-91520897D01*
X183826509Y-91586669D01*
X183786055Y-91620027D01*
X183773607Y-91626507D01*
X183769474Y-91629610D01*
X183769471Y-91629612D01*
X183745247Y-91647800D01*
X183594965Y-91760635D01*
X183440629Y-91922138D01*
X183314743Y-92106680D01*
X183220688Y-92309305D01*
X183160989Y-92524570D01*
X183137251Y-92746695D01*
X182508500Y-92746695D01*
X182508500Y-85134500D01*
X182528502Y-85066379D01*
X182582158Y-85019886D01*
X182634500Y-85008500D01*
X215365500Y-85008500D01*
X215433621Y-85028502D01*
G37*
%TD.AperFunction*%
%TD*%
M02*
